<svg width="24" height="24" viewBox="0 0 24 24" fill="none" xmlns="http://www.w3.org/2000/svg">
<path opacity="0.4" d="M15.1425 4.5H8.8575C6.1275 4.5 4.5 6.1275 4.5 8.8575V15.135C4.5 17.8725 6.1275 19.5 8.8575 19.5H15.135C17.865 19.5 19.4925 17.8725 19.4925 15.1425V8.8575C19.5 6.1275 17.8725 4.5 15.1425 4.5Z" fill="#CFCFCF"/>
<path d="M12.0004 10.413C12.1429 10.413 12.2854 10.4655 12.3979 10.578L15.0454 13.2255C15.2629 13.443 15.2629 13.803 15.0454 14.0205C14.8279 14.238 14.4679 14.238 14.2504 14.0205L12.0004 11.7705L9.75037 14.0205C9.53287 14.238 9.17287 14.238 8.95537 14.0205C8.73787 13.803 8.73787 13.443 8.95537 13.2255L11.6029 10.578C11.7154 10.4655 11.8579 10.413 12.0004 10.413Z" fill="#737373"/>
</svg>
