<svg width="24" height="24" viewBox="0 0 24 24" fill="none" xmlns="http://www.w3.org/2000/svg">
<path opacity="0.4" d="M15.1425 4.5H8.8575C6.1275 4.5 4.5 6.1275 4.5 8.8575V15.135C4.5 17.8725 6.1275 19.5 8.8575 19.5H15.135C17.865 19.5 19.4925 17.8725 19.4925 15.1425V8.8575C19.5 6.1275 17.8725 4.5 15.1425 4.5Z" fill="#CFCFCF"/>
<path d="M12.0001 14.1847C11.8576 14.1847 11.7151 14.1322 11.6026 14.0197L8.95512 11.3722C8.73762 11.1547 8.73762 10.7947 8.95512 10.5772C9.17262 10.3597 9.53262 10.3597 9.75012 10.5772L12.0001 12.8272L14.2501 10.5772C14.4676 10.3597 14.8276 10.3597 15.0451 10.5772C15.2626 10.7947 15.2626 11.1547 15.0451 11.3722L12.3976 14.0197C12.2851 14.1322 12.1426 14.1847 12.0001 14.1847Z" fill="#737373"/>
</svg>
