<svg width="24" height="24" viewBox="0 0 24 24" fill="none" xmlns="http://www.w3.org/2000/svg">
<g id="vuesax/linear/gallery-add">
<g id="gallery-add">
<path id="Vector" d="M9 10C10.1046 10 11 9.10457 11 8C11 6.89543 10.1046 6 9 6C7.89543 6 7 6.89543 7 8C7 9.10457 7.89543 10 9 10Z" stroke="#878787" stroke-width="1.5" stroke-linecap="round" stroke-linejoin="round"/>
<path id="Vector_2" d="M13 2H9C4 2 2 4 2 9V15C2 20 4 22 9 22H15C20 22 22 20 22 15V10" stroke="#878787" stroke-width="1.5" stroke-linecap="round" stroke-linejoin="round"/>
<path id="Vector_3" d="M15.75 5H21.25" stroke="#878787" stroke-width="1.5" stroke-linecap="round"/>
<path id="Vector_4" d="M18.5 7.75V2.25" stroke="#878787" stroke-width="1.5" stroke-linecap="round"/>
<path id="Vector_5" d="M2.66992 18.9486L7.59992 15.6386C8.38992 15.1086 9.52992 15.1686 10.2399 15.7786L10.5699 16.0686C11.3499 16.7386 12.6099 16.7386 13.3899 16.0686L17.5499 12.4986C18.3299 11.8286 19.5899 11.8286 20.3699 12.4986L21.9999 13.8986" stroke="#878787" stroke-width="1.5" stroke-linecap="round" stroke-linejoin="round"/>
</g>
</g>
</svg>
