<svg width="32" height="32" viewBox="0 0 32 32" fill="none" xmlns="http://www.w3.org/2000/svg">
<g id="vuesax/bulk/key-square">
<g id="key-square">
<path id="Vector" d="M21.587 2.66699H10.4137C5.56033 2.66699 2.66699 5.56033 2.66699 10.4137V21.5737C2.66699 26.4403 5.56033 29.3337 10.4137 29.3337H21.5737C26.427 29.3337 29.3203 26.4403 29.3203 21.587V10.4137C29.3337 5.56033 26.4403 2.66699 21.587 2.66699Z" fill="#D9BF98"/>
<g id="house">
<path id="Vector_2" d="M21.9098 15.5849V23.516H10L10.033 15.5783C10.033 15.1758 10.2177 14.7931 10.5411 14.5424L15.1598 10.953C15.6349 10.5769 16.3079 10.5769 16.783 10.953L17.6671 11.6392L20.5901 13.909L21.4017 14.5424C21.725 14.7931 21.9098 15.1758 21.9098 15.5849Z" fill="white"/>
<path id="Vector_3" d="M16.5779 20.2168H15.2583C14.7106 20.2168 14.2686 20.6589 14.2686 21.2065V23.5159H17.5677V21.2065C17.5677 20.6589 17.1256 20.2168 16.5779 20.2168Z" fill="#D9BF98"/>
<path id="Vector_4" d="M14.2685 18.073H12.9489C12.586 18.073 12.2891 17.7761 12.2891 17.4132V16.4235C12.2891 16.0606 12.586 15.7637 12.9489 15.7637H14.2685C14.6314 15.7637 14.9283 16.0606 14.9283 16.4235V17.4132C14.9283 17.7761 14.6314 18.073 14.2685 18.073Z" fill="#D9BF98"/>
<path id="Vector_5" d="M18.8867 18.073H17.567C17.2041 18.073 16.9072 17.7761 16.9072 17.4132V16.4235C16.9072 16.0606 17.2041 15.7637 17.567 15.7637H18.8867C19.2496 15.7637 19.5465 16.0606 19.5465 16.4235V17.4132C19.5465 17.7761 19.2496 18.073 18.8867 18.073Z" fill="#D9BF98"/>
<path id="Vector 1" d="M8 14.5L15.3694 8.51236C15.7368 8.21384 16.2632 8.21384 16.6306 8.51236L24 14.5" stroke="white" stroke-linecap="round"/>
</g>
</g>
</g>
</svg>
