<svg width="20" height="20" viewBox="0 0 20 20" fill="none" xmlns="http://www.w3.org/2000/svg">
<g id="vuesax/bulk/arrow-circle-left">
<g id="arrow-circle-left">
<path id="Vector" d="M10.0003 18.3346C14.6027 18.3346 18.3337 14.6037 18.3337 10.0013C18.3337 5.39893 14.6027 1.66797 10.0003 1.66797C5.39795 1.66797 1.66699 5.39893 1.66699 10.0013C1.66699 14.6037 5.39795 18.3346 10.0003 18.3346Z" fill="white"/>
<path id="Vector_2" d="M11.0499 13.5688C10.8916 13.5688 10.7333 13.5104 10.6083 13.3854L7.6666 10.4438C7.42493 10.2021 7.42493 9.80208 7.6666 9.56042L10.6083 6.61875C10.8499 6.37708 11.2499 6.37708 11.4916 6.61875C11.7333 6.86042 11.7333 7.26042 11.4916 7.50208L8.9916 10.0021L11.4916 12.5021C11.7333 12.7438 11.7333 13.1438 11.4916 13.3854C11.3749 13.5104 11.2166 13.5688 11.0499 13.5688Z" fill="#575757"/>
</g>
</g>
</svg>
