<svg width="20" height="20" viewBox="0 0 20 20" fill="none" xmlns="http://www.w3.org/2000/svg">
<g id="vuesax/bulk/arrow-circle-right">
<g id="arrow-circle-right">
<path id="Vector" d="M10.0003 18.3346C14.6027 18.3346 18.3337 14.6037 18.3337 10.0013C18.3337 5.39893 14.6027 1.66797 10.0003 1.66797C5.39795 1.66797 1.66699 5.39893 1.66699 10.0013C1.66699 14.6037 5.39795 18.3346 10.0003 18.3346Z" fill="white"/>
<path id="Vector_2" d="M8.95006 13.5688C8.79173 13.5688 8.6334 13.5104 8.5084 13.3854C8.26673 13.1438 8.26673 12.7438 8.5084 12.5021L11.0084 10.0021L8.5084 7.50208C8.26673 7.26042 8.26673 6.86042 8.5084 6.61875C8.75007 6.37708 9.15007 6.37708 9.39173 6.61875L12.3334 9.56042C12.5751 9.80208 12.5751 10.2021 12.3334 10.4438L9.39173 13.3854C9.26673 13.5104 9.1084 13.5688 8.95006 13.5688Z" fill="#575757"/>
</g>
</g>
</svg>
