<svg width="144" height="136" viewBox="0 0 144 136" fill="none" xmlns="http://www.w3.org/2000/svg">
<path d="M27.4341 45.7969L70.4251 70.6761L113.124 45.9429" stroke="#3F3F3F" stroke-width="1.5" stroke-linecap="round" stroke-linejoin="round"/>
<path d="M70.4248 114.784V70.625" stroke="#3F3F3F" stroke-width="1.5" stroke-linecap="round" stroke-linejoin="round"/>
<path d="M60.3471 21.6439L34.348 36.0553C28.4568 39.3174 23.6367 47.4969 23.6367 54.2157V81.724C23.6367 88.4429 28.4568 96.6223 34.348 99.8844L60.3471 114.345C65.8975 117.412 75.002 117.412 80.5524 114.345L106.552 99.8844C112.443 96.6223 117.263 88.4429 117.263 81.724V54.2157C117.263 47.4969 112.443 39.3174 106.552 36.0553L80.5524 21.5952C74.9533 18.5279 65.8975 18.5279 60.3471 21.6439Z" stroke="#3F3F3F" stroke-width="1.5" stroke-linecap="round" stroke-linejoin="round"/>
<path d="M139.566 73H138.486V69.004H134.094V73H133.014V64.432H134.094V68.056H138.486V64.432H139.566V73Z" fill="#3F3F3F"/>
<path d="M126.192 89.899V38.7109" stroke="#B07546" stroke-width="1.5" stroke-linecap="round" stroke-linejoin="round"/>
<path d="M40.9288 118.432L38.6488 127H37.5568L35.8888 121.384C35.8408 121.216 35.7928 121.044 35.7448 120.868C35.6968 120.692 35.6528 120.524 35.6128 120.364C35.5728 120.204 35.5368 120.068 35.5048 119.956C35.4808 119.836 35.4648 119.748 35.4568 119.692C35.4488 119.748 35.4328 119.836 35.4088 119.956C35.3928 120.068 35.3648 120.204 35.3248 120.364C35.2848 120.524 35.2408 120.696 35.1928 120.88C35.1528 121.056 35.1048 121.236 35.0488 121.42L33.4288 127H32.3368L30.0688 118.432H31.1968L32.5288 123.664C32.5768 123.848 32.6208 124.032 32.6608 124.216C32.7008 124.392 32.7368 124.568 32.7688 124.744C32.8088 124.912 32.8408 125.076 32.8648 125.236C32.8888 125.396 32.9128 125.552 32.9368 125.704C32.9608 125.544 32.9848 125.38 33.0088 125.212C33.0408 125.044 33.0768 124.872 33.1168 124.696C33.1568 124.512 33.2008 124.328 33.2488 124.144C33.2968 123.96 33.3448 123.78 33.3928 123.604L34.9048 118.432H36.0208L37.5928 123.64C37.6488 123.824 37.7008 124.012 37.7488 124.204C37.7968 124.388 37.8408 124.568 37.8808 124.744C37.9208 124.92 37.9528 125.092 37.9768 125.26C38.0088 125.42 38.0368 125.568 38.0608 125.704C38.0848 125.504 38.1168 125.296 38.1568 125.08C38.1968 124.856 38.2448 124.624 38.3008 124.384C38.3568 124.144 38.4168 123.9 38.4808 123.652L39.8008 118.432H40.9288Z" fill="#3F3F3F"/>
<path d="M105.189 127V118.432H106.269V126.04H110.013V127H105.189Z" fill="#3F3F3F"/>
<path d="M23.0752 103.113L61.3024 124.634M120.967 100.516L79.9496 124.634" stroke="#B07546" stroke-width="1.5" stroke-linecap="round" stroke-linejoin="round"/>
</svg>
