<svg width="121" height="114" viewBox="0 0 121 114" fill="none" xmlns="http://www.w3.org/2000/svg">
<path d="M24.8613 38.5039L60.6872 59.2366L96.2697 38.6256" stroke="#3F3F3F" stroke-width="1.5" stroke-linecap="round" stroke-linejoin="round"/>
<path d="M60.6875 95.9909V59.1914" stroke="#3F3F3F" stroke-width="1.5" stroke-linecap="round" stroke-linejoin="round"/>
<path d="M52.2892 18.3745L30.6233 30.384C25.714 33.1024 21.6973 39.9186 21.6973 45.5176V68.4412C21.6973 74.0403 25.714 80.8565 30.6233 83.5749L52.2892 95.625C56.9146 98.1811 64.5017 98.1811 69.127 95.625L90.793 83.5749C95.7023 80.8565 99.719 74.0403 99.719 68.4412V45.5176C99.719 39.9186 95.7023 33.1024 90.793 30.384L69.127 18.3339C64.4611 15.7778 56.9146 15.7778 52.2892 18.3745Z" stroke="#3F3F3F" stroke-width="1.5" stroke-linecap="round" stroke-linejoin="round"/>
<path d="M120.091 62H119.011V58.004H114.619V62H113.539V53.432H114.619V57.056H119.011V53.432H120.091V62Z" fill="#3F3F3F"/>
<path d="M105.993 75.3567V32.4492" stroke="#B07546" stroke-width="1.5" stroke-linecap="round" stroke-linejoin="round"/>
<path d="M35.9415 99.432L33.6615 108H32.5695L30.9015 102.384C30.8535 102.216 30.8055 102.044 30.7575 101.868C30.7095 101.692 30.6655 101.524 30.6255 101.364C30.5855 101.204 30.5495 101.068 30.5175 100.956C30.4935 100.836 30.4775 100.748 30.4695 100.692C30.4615 100.748 30.4455 100.836 30.4215 100.956C30.4055 101.068 30.3775 101.204 30.3375 101.364C30.2975 101.524 30.2535 101.696 30.2055 101.88C30.1655 102.056 30.1175 102.236 30.0615 102.42L28.4415 108H27.3495L25.0815 99.432H26.2095L27.5415 104.664C27.5895 104.848 27.6335 105.032 27.6735 105.216C27.7135 105.392 27.7495 105.568 27.7815 105.744C27.8215 105.912 27.8535 106.076 27.8775 106.236C27.9015 106.396 27.9255 106.552 27.9495 106.704C27.9735 106.544 27.9975 106.38 28.0215 106.212C28.0535 106.044 28.0895 105.872 28.1295 105.696C28.1695 105.512 28.2135 105.328 28.2615 105.144C28.3095 104.96 28.3575 104.78 28.4055 104.604L29.9175 99.432H31.0335L32.6055 104.64C32.6615 104.824 32.7135 105.012 32.7615 105.204C32.8095 105.388 32.8535 105.568 32.8935 105.744C32.9335 105.92 32.9655 106.092 32.9895 106.26C33.0215 106.42 33.0495 106.568 33.0735 106.704C33.0975 106.504 33.1295 106.296 33.1695 106.08C33.2095 105.856 33.2575 105.624 33.3135 105.384C33.3695 105.144 33.4295 104.9 33.4935 104.652L34.8135 99.432H35.9415Z" fill="#3F3F3F"/>
<path d="M87.8515 108V99.432H88.9315V107.04H92.6755V108H87.8515Z" fill="#3F3F3F"/>
<path d="M22.5625 85.9298L54.4185 103.864M104.139 83.7656L69.9578 103.864" stroke="#B07546" stroke-width="1.5" stroke-linecap="round" stroke-linejoin="round"/>
</svg>
