<svg width="106" height="96" viewBox="0 0 106 96" fill="none" xmlns="http://www.w3.org/2000/svg">
<path d="M22.8308 32.4219L53 49.881L82.9642 32.5244" stroke="#3F3F3F" stroke-width="1.5" stroke-linecap="round" stroke-linejoin="round"/>
<path d="M53 80.8329V49.8438" stroke="#3F3F3F" stroke-width="1.5" stroke-linecap="round" stroke-linejoin="round"/>
<path d="M45.9274 15.4724L27.6824 25.5858C23.5483 27.8749 20.1658 33.6149 20.1658 38.3299V57.6341C20.1658 62.3491 23.5483 68.0891 27.6824 70.3783L45.9274 80.5258C49.8224 82.6783 56.2116 82.6783 60.1066 80.5258L78.3516 70.3783C82.4858 68.0891 85.8683 62.3491 85.8683 57.6341V38.3299C85.8683 33.6149 82.4858 27.8749 78.3516 25.5858L60.1066 15.4383C56.1774 13.2858 49.8224 13.2858 45.9274 15.4724Z" stroke="#3F3F3F" stroke-width="1.5" stroke-linecap="round" stroke-linejoin="round"/>
<path d="M104.716 53H103.636V49.004H99.244V53H98.164V44.432H99.244V48.056H103.636V44.432H104.716V53Z" fill="#3F3F3F"/>
<path d="M90.9775 63.4569V27.3242" stroke="#B07546" stroke-width="1.5" stroke-linecap="round" stroke-linejoin="round"/>
<path d="M32.004 84.432L29.724 93H28.632L26.964 87.384C26.916 87.216 26.868 87.044 26.82 86.868C26.772 86.692 26.728 86.524 26.688 86.364C26.648 86.204 26.612 86.068 26.58 85.956C26.556 85.836 26.54 85.748 26.532 85.692C26.524 85.748 26.508 85.836 26.484 85.956C26.468 86.068 26.44 86.204 26.4 86.364C26.36 86.524 26.316 86.696 26.268 86.88C26.228 87.056 26.18 87.236 26.124 87.42L24.504 93H23.412L21.144 84.432H22.272L23.604 89.664C23.652 89.848 23.696 90.032 23.736 90.216C23.776 90.392 23.812 90.568 23.844 90.744C23.884 90.912 23.916 91.076 23.94 91.236C23.964 91.396 23.988 91.552 24.012 91.704C24.036 91.544 24.06 91.38 24.084 91.212C24.116 91.044 24.152 90.872 24.192 90.696C24.232 90.512 24.276 90.328 24.324 90.144C24.372 89.96 24.42 89.78 24.468 89.604L25.98 84.432H27.096L28.668 89.64C28.724 89.824 28.776 90.012 28.824 90.204C28.872 90.388 28.916 90.568 28.956 90.744C28.996 90.92 29.028 91.092 29.052 91.26C29.084 91.42 29.112 91.568 29.136 91.704C29.16 91.504 29.192 91.296 29.232 91.08C29.272 90.856 29.32 90.624 29.376 90.384C29.432 90.144 29.492 89.9 29.556 89.652L30.876 84.432H32.004Z" fill="#3F3F3F"/>
<path d="M74.164 93V84.432H75.244V92.04H78.988V93H74.164Z" fill="#3F3F3F"/>
<path d="M19 72.3615L45.8261 87.4641M87.6959 70.5391L58.9119 87.4641" stroke="#B07546" stroke-width="1.5" stroke-linecap="round" stroke-linejoin="round"/>
</svg>
